<?xml version="1.0" standalone="no"?><!DOCTYPE svg PUBLIC "-//W3C//DTD SVG 1.1//EN" "http://www.w3.org/Graphics/SVG/1.1/DTD/svg11.dtd"><svg height="48" node-id="1" sillyvg="true" template-height="48" template-width="48" version="1.1" viewBox="0 0 48 48" width="48" xmlns="http://www.w3.org/2000/svg" xmlns:xlink="http://www.w3.org/1999/xlink"><defs node-id="30"></defs><path d="M 46.52 11.29 C 45.98 11.00 45.33 10.98 44.78 11.26 C 44.22 11.53 43.84 12.06 43.75 12.67 C 43.35 15.31 41.74 17.60 39.40 18.88 C 39.40 19.23 39.40 19.58 39.40 19.94 C 39.40 23.16 39.53 25.86 39.75 28.12 L 41.54 26.25 C 44.98 22.68 47.08 18.04 47.49 13.10 C 47.55 12.36 47.17 11.65 46.52 11.29 Z" fill="#f0f0f0" fill-rule="nonzero" node-id="32" stroke="#45413c" stroke-linecap="round" stroke-width="1" target-height="17.140001" target-width="8.149998" target-x="39.4" target-y="10.98"></path><path d="M 8.21 28.12 C 8.43 25.86 8.56 23.12 8.56 19.94 C 8.56 19.58 8.56 19.23 8.56 18.88 C 6.22 17.60 4.61 15.31 4.21 12.67 C 4.09 11.64 3.16 10.90 2.12 11.02 C 1.09 11.13 0.35 12.07 0.47 13.10 C 0.88 18.04 2.98 22.68 6.42 26.25 Z" fill="#f0f0f0" fill-rule="nonzero" node-id="34" stroke="#45413c" stroke-linecap="round" stroke-width="1" target-height="17.220001" target-width="8.21" target-x="0.35" target-y="10.9"></path><path d="M 39.44 19.94 C 39.44 11.41 32.53 4.50 24.00 4.50 C 15.47 4.50 8.56 11.41 8.56 19.94 C 8.56 38.08 4.28 39.62 5.86 39.62 C 9.64 39.62 10.49 37.69 12.86 37.69 C 15.23 37.69 15.95 39.62 18.65 39.62 C 21.35 39.62 21.73 37.69 24.05 37.69 C 26.37 37.69 26.75 39.62 29.45 39.62 C 32.15 39.62 32.93 37.69 35.24 37.69 C 37.55 37.69 38.41 39.62 42.24 39.62 C 43.72 39.62 39.44 38.08 39.44 19.94 Z" fill="#f0f0f0" fill-rule="nonzero" id="_Path_" node-id="9" stroke="none" target-height="35.12" target-width="39.440002" target-x="4.28" target-y="4.5"></path><path d="M 35.91 35.46 C 33.45 35.46 32.63 37.36 29.75 37.36 C 26.87 37.36 26.46 35.46 24.00 35.46 C 21.54 35.46 21.12 37.36 18.25 37.36 C 15.38 37.36 14.55 35.46 12.09 35.46 C 10.00 35.46 9.00 36.79 6.40 37.22 C 5.64 39.29 5.14 39.62 5.86 39.62 C 9.64 39.62 10.49 37.69 12.86 37.69 C 15.23 37.69 15.95 39.62 18.65 39.62 C 21.35 39.62 21.73 37.69 24.05 37.69 C 26.37 37.69 26.75 39.62 29.45 39.62 C 32.15 39.62 32.93 37.69 35.24 37.69 C 37.55 37.69 38.41 39.62 42.24 39.62 C 42.96 39.62 42.46 39.29 41.70 37.22 C 39.00 36.79 38.00 35.46 35.91 35.46 Z" fill="#e0e0e0" fill-rule="nonzero" id="_Path_2" node-id="10" stroke="none" target-height="4.16" target-width="37.82" target-x="5.14" target-y="35.46"></path><path d="M 28.63 7.59 C 28.63 8.23 26.56 8.75 24.00 8.75 C 21.44 8.75 19.37 8.23 19.37 7.59 C 19.37 6.95 21.44 6.43 24.00 6.43 C 26.56 6.43 28.63 6.95 28.63 7.59 Z" fill="#ffffff" fill-rule="nonzero" id="_Ellipse_" node-id="11" stroke="none" target-height="2.3200002" target-width="9.259998" target-x="19.37" target-y="6.43"></path><g node-id="36"><path d="M 41.50 44.50 C 41.50 45.33 33.66 46.00 24.00 46.00 C 14.34 46.00 6.50 45.33 6.50 44.50 C 6.50 43.67 14.34 43.00 24.00 43.00 C 33.66 43.00 41.50 43.67 41.50 44.50 Z" fill="#45413c" fill-opacity="0.15" fill-rule="nonzero" group-id="1" id="_Ellipse_2" node-id="12" stroke="none" target-height="3" target-width="35" target-x="6.5" target-y="43"></path></g><path d="M 12.81 23.80 C 12.81 24.44 13.67 24.95 14.74 24.95 C 15.81 24.95 16.67 24.44 16.67 23.80 C 16.67 23.16 15.80 22.64 14.74 22.64 C 13.68 22.64 12.81 23.16 12.81 23.80 Z" fill="#ffaa54" fill-rule="nonzero" id="_Path_3" node-id="13" stroke="none" target-height="2.3100014" target-width="3.8599997" target-x="12.81" target-y="22.64"></path><path d="M 12.81 23.80 C 12.81 24.44 13.67 24.95 14.74 24.95 C 15.81 24.95 16.67 24.44 16.67 23.80 C 16.67 23.16 15.80 22.64 14.74 22.64 C 13.68 22.64 12.81 23.16 12.81 23.80 Z" fill="#e0e0e0" fill-rule="nonzero" id="_Path_4" node-id="14" stroke="none" target-height="2.3100014" target-width="3.8599997" target-x="12.81" target-y="22.64"></path><path d="M 35.19 23.80 C 35.19 24.44 34.33 24.95 33.26 24.95 C 32.19 24.95 31.33 24.44 31.33 23.80 C 31.33 23.16 32.20 22.64 33.26 22.64 C 34.32 22.64 35.19 23.16 35.19 23.80 Z" fill="#e0e0e0" fill-rule="nonzero" id="_Path_5" node-id="15" stroke="none" target-height="2.3100014" target-width="3.8599987" target-x="31.33" target-y="22.64"></path><path d="M 33.26 18.39 C 33.26 19.88 32.05 21.09 30.56 21.09 C 29.07 21.09 27.86 19.88 27.86 18.39 C 27.86 16.90 29.07 15.69 30.56 15.69 C 32.05 15.69 33.26 16.90 33.26 18.39 Z" fill="#656769" fill-rule="nonzero" id="_Path_6" node-id="16" stroke="none" target-height="5.4000006" target-width="5.3999977" target-x="27.86" target-y="15.69"></path><path d="M 30.56 17.24 C 31.75 17.24 32.80 18.02 33.14 19.16 C 33.22 18.91 33.26 18.65 33.26 18.39 C 33.26 16.90 32.05 15.69 30.56 15.69 C 29.07 15.69 27.86 16.90 27.86 18.39 C 27.86 18.65 27.90 18.91 27.98 19.16 C 28.32 18.02 29.37 17.24 30.56 17.24 Z" fill="#525252" fill-rule="nonzero" id="_Path_7" node-id="17" stroke="none" target-height="3.4700003" target-width="5.3999977" target-x="27.86" target-y="15.69"></path><path d="M 33.26 18.39 C 33.26 19.88 32.05 21.09 30.56 21.09 C 29.07 21.09 27.86 19.88 27.86 18.39 C 27.86 16.90 29.07 15.69 30.56 15.69 C 32.05 15.69 33.26 16.90 33.26 18.39 Z" fill="none" id="_Path_8" node-id="18" stroke="#45413c" stroke-linecap="round" stroke-width="1" target-height="5.4000006" target-width="5.3999977" target-x="27.86" target-y="15.69"></path><path d="M 13.58 17.24 C 13.58 19.37 15.31 21.10 17.44 21.10 C 19.57 21.10 21.30 19.37 21.30 17.24 C 21.30 15.11 19.57 13.38 17.44 13.38 C 16.42 13.38 15.43 13.78 14.71 14.51 C 13.98 15.23 13.58 16.22 13.58 17.24 Z" fill="#656769" fill-rule="nonzero" id="_Path_9" node-id="19" stroke="none" target-height="7.7200003" target-width="7.7199993" target-x="13.58" target-y="13.38"></path><path d="M 17.44 15.31 C 19.19 15.31 20.73 16.50 21.16 18.20 C 21.60 16.63 21.00 14.95 19.66 14.01 C 18.33 13.08 16.55 13.08 15.22 14.01 C 13.88 14.95 13.28 16.63 13.72 18.20 C 14.15 16.50 15.69 15.31 17.44 15.31 Z" fill="#525252" fill-rule="nonzero" id="_Path_10" node-id="20" stroke="none" target-height="5.120001" target-width="8.320001" target-x="13.28" target-y="13.08"></path><path d="M 13.58 17.24 C 13.58 19.37 15.31 21.10 17.44 21.10 C 19.57 21.10 21.30 19.37 21.30 17.24 C 21.30 15.11 19.57 13.38 17.44 13.38 C 16.42 13.38 15.43 13.78 14.71 14.51 C 13.98 15.23 13.58 16.22 13.58 17.24 Z" fill="none" id="_Path_11" node-id="21" stroke="#45413c" stroke-linecap="round" stroke-width="1" target-height="7.7200003" target-width="7.7199993" target-x="13.58" target-y="13.38"></path><path d="M 39.44 19.94 C 39.44 11.41 32.53 4.50 24.00 4.50 C 15.47 4.50 8.56 11.41 8.56 19.94 C 8.56 38.08 4.28 39.62 5.86 39.62 C 9.64 39.62 10.49 37.69 12.86 37.69 C 15.23 37.69 15.95 39.62 18.65 39.62 C 21.35 39.62 21.73 37.69 24.05 37.69 C 26.37 37.69 26.75 39.62 29.45 39.62 C 32.15 39.62 32.93 37.69 35.24 37.69 C 37.55 37.69 38.41 39.62 42.24 39.62 C 43.72 39.62 39.44 38.08 39.44 19.94 Z" fill="none" id="_Path_12" node-id="22" stroke="#45413c" stroke-linecap="round" stroke-width="1" target-height="35.12" target-width="39.440002" target-x="4.28" target-y="4.5"></path><path d="M 18.19 25.67 C 18.57 31.88 22.12 34.14 23.47 34.91 C 23.80 35.09 24.20 35.09 24.53 34.91 C 25.88 34.14 29.43 31.91 29.81 25.67 C 29.83 25.38 29.72 25.09 29.52 24.88 C 29.32 24.67 29.04 24.55 28.75 24.55 L 19.25 24.55 C 18.96 24.55 18.68 24.67 18.48 24.88 C 18.28 25.09 18.17 25.38 18.19 25.67 Z" fill="#ffb0ca" fill-rule="nonzero" group-id="2" id="_Path_13" node-id="24" stroke="#45413c" stroke-linecap="round" stroke-width="1" target-height="10.540001" target-width="11.66" target-x="18.17" target-y="24.55"></path><path d="M 24.00 29.58 C 24.00 28.43 27.47 28.77 27.47 29.97 L 27.47 34.97 C 27.47 36.89 25.92 38.44 24.00 38.44 C 22.08 38.44 20.53 36.89 20.53 34.97 L 20.53 30.00 C 20.53 28.77 24.00 28.43 24.00 29.58 Z" fill="#ff6242" fill-rule="nonzero" group-id="3" id="_Path_14" node-id="26" stroke="none" target-height="10.009998" target-width="6.9399986" target-x="20.53" target-y="28.43"></path><path d="M 24.00 29.58 C 24.00 28.43 20.53 28.77 20.53 29.97 L 20.53 31.51 C 20.53 30.31 27.47 30.31 27.47 31.51 L 27.47 30.00 C 27.47 28.77 24.00 28.43 24.00 29.58 Z" fill="#ff866e" fill-rule="nonzero" group-id="3" id="_Path_15" node-id="27" stroke="none" target-height="3.08" target-width="6.9399986" target-x="20.53" target-y="28.43"></path><path d="M 24.00 29.58 C 24.00 28.43 27.47 28.77 27.47 29.97 L 27.47 34.97 C 27.47 36.89 25.92 38.44 24.00 38.44 C 22.08 38.44 20.53 36.89 20.53 34.97 L 20.53 30.00 C 20.53 28.77 24.00 28.43 24.00 29.58 Z" fill="none" group-id="3" id="_Path_16" node-id="28" stroke="#45413c" stroke-linecap="round" stroke-width="1" target-height="10.009998" target-width="6.9399986" target-x="20.53" target-y="28.43"></path></svg>
